<svg width="20" height="20" viewBox="0 0 20 20" fill="none" xmlns="http://www.w3.org/2000/svg">
<mask id="mask0_4974_1239" style="mask-type:alpha" maskUnits="userSpaceOnUse" x="0" y="0" width="20" height="20">
<rect width="20" height="20" fill="#D9D9D9"/>
</mask>
<g mask="url(#mask0_4974_1239)">
<path d="M5.83323 11.4583H10.8332C11.0106 11.4583 11.1591 11.3984 11.2787 11.2788C11.3984 11.1591 11.4582 11.0106 11.4582 10.8333C11.4582 10.6559 11.3984 10.5074 11.2787 10.3878C11.1591 10.2681 11.0106 10.2083 10.8332 10.2083H5.83323C5.65588 10.2083 5.50738 10.2681 5.38773 10.3878C5.26808 10.5074 5.20825 10.6559 5.20825 10.8333C5.20825 11.0106 5.26808 11.1591 5.38773 11.2788C5.50738 11.3984 5.65588 11.4583 5.83323 11.4583ZM5.83323 8.95827H14.1666C14.3439 8.95827 14.4924 8.89845 14.6121 8.77879C14.7317 8.65914 14.7915 8.51064 14.7915 8.33329C14.7915 8.15595 14.7317 8.00745 14.6121 7.88779C14.4924 7.76814 14.3439 7.70831 14.1666 7.70831H5.83323C5.65588 7.70831 5.50738 7.76814 5.38773 7.88779C5.26808 8.00745 5.20825 8.15595 5.20825 8.33329C5.20825 8.51064 5.26808 8.65914 5.38773 8.77879C5.50738 8.89845 5.65588 8.95827 5.83323 8.95827ZM5.83323 6.45827H14.1666C14.3439 6.45827 14.4924 6.39845 14.6121 6.27879C14.7317 6.15914 14.7915 6.01064 14.7915 5.83329C14.7915 5.65595 14.7317 5.50745 14.6121 5.38779C14.4924 5.26814 14.3439 5.20831 14.1666 5.20831H5.83323C5.65588 5.20831 5.50738 5.26814 5.38773 5.38779C5.26808 5.50745 5.20825 5.65595 5.20825 5.83329C5.20825 6.01064 5.26808 6.15914 5.38773 6.27879C5.50738 6.39845 5.65588 6.45827 5.83323 6.45827ZM5.03196 14.5833L3.36371 16.2515C3.12653 16.4887 2.85383 16.5424 2.54561 16.4126C2.23737 16.2828 2.08325 16.0491 2.08325 15.7115V3.58973C2.08325 3.16879 2.22909 2.81248 2.52075 2.52081C2.81242 2.22915 3.16872 2.08331 3.58967 2.08331H16.4101C16.8311 2.08331 17.1874 2.22915 17.479 2.52081C17.7707 2.81248 17.9165 3.16879 17.9165 3.58973V13.0769C17.9165 13.4978 17.7707 13.8541 17.479 14.1458C17.1874 14.4374 16.8311 14.5833 16.4101 14.5833H5.03196ZM4.49992 13.3333H16.4101C16.4742 13.3333 16.533 13.3066 16.5864 13.2532C16.6399 13.1997 16.6666 13.141 16.6666 13.0769V3.58973C16.6666 3.52562 16.6399 3.46685 16.5864 3.41342C16.533 3.36 16.4742 3.33329 16.4101 3.33329H3.58967C3.52556 3.33329 3.46679 3.36 3.41336 3.41342C3.35994 3.46685 3.33323 3.52562 3.33323 3.58973V14.4871L4.49992 13.3333Z" fill="#56616B"/>
</g>
</svg>
