<svg width="20" height="20" viewBox="0 0 20 20" fill="none" xmlns="http://www.w3.org/2000/svg">
<mask id="mask0_4974_1201" style="mask-type:alpha" maskUnits="userSpaceOnUse" x="0" y="0" width="20" height="20">
<rect width="20" height="20" fill="#D9D9D9"/>
</mask>
<g mask="url(#mask0_4974_1201)">
<path d="M6.69632 13.9727C6.82521 13.9727 6.93292 13.9285 7.01944 13.8402C7.10598 13.7519 7.14926 13.6414 7.14926 13.5088V9.12897C7.14926 9.00743 7.10436 8.90212 7.01457 8.81305C6.92478 8.724 6.81857 8.67947 6.69594 8.67947C6.56226 8.67947 6.45215 8.724 6.36561 8.81305C6.27908 8.90212 6.23582 9.00743 6.23582 9.12897V13.5088C6.23582 13.6414 6.28035 13.7519 6.3694 13.8402C6.45847 13.9285 6.56744 13.9727 6.69632 13.9727ZM10.0072 13.9727C10.1361 13.9727 10.2438 13.9285 10.3303 13.8402C10.4169 13.7519 10.4601 13.6414 10.4601 13.5088V6.47674C10.4601 6.35519 10.4152 6.24988 10.3255 6.16082C10.2357 6.07175 10.1295 6.02722 10.0068 6.02722C9.87316 6.02722 9.76305 6.07175 9.67651 6.16082C9.58996 6.24988 9.54669 6.35519 9.54669 6.47674V13.5088C9.54669 13.6414 9.59123 13.7519 9.6803 13.8402C9.76937 13.9285 9.87834 13.9727 10.0072 13.9727ZM13.3117 13.9727C13.4406 13.9727 13.5483 13.9285 13.6348 13.8402C13.7213 13.7519 13.7646 13.6414 13.7646 13.5088V11.7219C13.7646 11.6056 13.7197 11.5016 13.6299 11.4099C13.5402 11.3182 13.4339 11.2724 13.3113 11.2724C13.1776 11.2724 13.0675 11.3182 12.981 11.4099C12.8944 11.5016 12.8512 11.6056 12.8512 11.7219V13.5088C12.8512 13.6414 12.8957 13.7519 12.9848 13.8402C13.0738 13.9285 13.1828 13.9727 13.3117 13.9727ZM4.14257 17.0256C3.82869 17.0256 3.55557 16.9094 3.32319 16.677C3.0908 16.4446 2.97461 16.1715 2.97461 15.8576V4.14232C2.97461 3.82845 3.0908 3.55532 3.32319 3.32295C3.55557 3.09056 3.82869 2.97437 4.14257 2.97437H15.8579C16.1717 2.97437 16.4449 3.09056 16.6772 3.32295C16.9096 3.55532 17.0258 3.82845 17.0258 4.14232V15.8576C17.0258 16.1715 16.9096 16.4446 16.6772 16.677C16.4449 16.9094 16.1717 17.0256 15.8579 17.0256H4.14257ZM4.14446 16.1121H15.856C15.9201 16.1121 15.9788 16.0854 16.0323 16.032C16.0857 15.9786 16.1124 15.9198 16.1124 15.8557V4.14422C16.1124 4.08012 16.0857 4.02136 16.0323 3.96793C15.9788 3.91451 15.9201 3.8878 15.856 3.8878H4.14446C4.08037 3.8878 4.0216 3.91451 3.96817 3.96793C3.91476 4.02136 3.88805 4.08012 3.88805 4.14422V15.8557C3.88805 15.9198 3.91476 15.9786 3.96817 16.032C4.0216 16.0854 4.08037 16.1121 4.14446 16.1121Z" fill="#56616B"/>
</g>
</svg>
