<svg width="24" height="24" viewBox="0 0 24 24" fill="none" xmlns="http://www.w3.org/2000/svg">
<mask id="mask0_4974_1257" style="mask-type:alpha" maskUnits="userSpaceOnUse" x="0" y="0" width="24" height="24">
<rect width="24" height="24" fill="#D9D9D9"/>
</mask>
<g mask="url(#mask0_4974_1257)">
<path d="M4 17.275C3.85 17.275 3.72933 17.225 3.638 17.125C3.546 17.025 3.5 16.9083 3.5 16.775C3.5 16.625 3.546 16.5043 3.638 16.413C3.72933 16.321 3.85 16.275 4 16.275H20C20.15 16.275 20.271 16.321 20.363 16.413C20.4543 16.5043 20.5 16.625 20.5 16.775C20.5 16.9083 20.4543 17.025 20.363 17.125C20.271 17.225 20.15 17.275 20 17.275H4ZM4 12.5C3.85 12.5 3.72933 12.45 3.638 12.35C3.546 12.25 3.5 12.1333 3.5 12C3.5 11.85 3.546 11.729 3.638 11.637C3.72933 11.5456 3.85 11.5 4 11.5H20C20.15 11.5 20.271 11.55 20.363 11.65C20.4543 11.75 20.5 11.8666 20.5 12C20.5 12.15 20.4543 12.271 20.363 12.363C20.271 12.4543 20.15 12.5 20 12.5H4ZM4 7.72498C3.85 7.72498 3.72933 7.67898 3.638 7.58698C3.546 7.49564 3.5 7.37498 3.5 7.22498C3.5 7.09164 3.546 6.97498 3.638 6.87498C3.72933 6.77498 3.85 6.72498 4 6.72498H20C20.15 6.72498 20.271 6.77498 20.363 6.87498C20.4543 6.97498 20.5 7.09164 20.5 7.22498C20.5 7.37498 20.4543 7.49564 20.363 7.58698C20.271 7.67898 20.15 7.72498 20 7.72498H4Z" fill="#56616B"/>
</g>
</svg>
