<svg width="20" height="20" viewBox="0 0 20 20" fill="none" xmlns="http://www.w3.org/2000/svg">
<mask id="mask0_4974_1233" style="mask-type:alpha" maskUnits="userSpaceOnUse" x="0" y="0" width="20" height="20">
<rect width="20" height="20" fill="#C4C4C4"/>
</mask>
<g mask="url(#mask0_4974_1233)">
<path d="M4.375 15.7371C4.19792 15.7371 4.04948 15.6772 3.92969 15.5574C3.8099 15.4375 3.75 15.289 3.75 15.1119C3.75 14.9347 3.8099 14.7863 3.92969 14.6666C4.04948 14.547 4.19792 14.4872 4.375 14.4872H5.25642V8.26919C5.25642 7.14847 5.6023 6.15755 6.29406 5.29644C6.98584 4.43533 7.87393 3.88458 8.95833 3.64421V3.12498C8.95833 2.83563 9.05951 2.58969 9.26188 2.38715C9.46424 2.18459 9.70996 2.08331 9.99904 2.08331C10.2881 2.08331 10.5342 2.18459 10.7371 2.38715C10.9401 2.58969 11.0416 2.83563 11.0416 3.12498V3.64421C12.126 3.88458 13.0141 4.43533 13.7059 5.29644C14.3977 6.15755 14.7435 7.14847 14.7435 8.26919V14.4872H15.625C15.802 14.4872 15.9505 14.5471 16.0703 14.6669C16.1901 14.7868 16.25 14.9353 16.25 15.1124C16.25 15.2896 16.1901 15.438 16.0703 15.5576C15.9505 15.6773 15.802 15.7371 15.625 15.7371H4.375ZM9.99856 18.0769C9.58391 18.0769 9.22942 17.9294 8.93508 17.6344C8.64075 17.3394 8.49358 16.9847 8.49358 16.5705H11.5064C11.5064 16.9861 11.3587 17.341 11.0635 17.6354C10.7682 17.9297 10.4132 18.0769 9.99856 18.0769ZM6.50638 14.4872H13.4936V8.26919C13.4936 7.30444 13.1525 6.48099 12.4703 5.79883C11.7882 5.11667 10.9647 4.77558 9.99998 4.77558C9.03523 4.77558 8.21178 5.11667 7.52963 5.79883C6.84746 6.48099 6.50638 7.30444 6.50638 8.26919V14.4872Z" fill="#56616B"/>
</g>
</svg>
