<svg width="20" height="20" viewBox="0 0 20 20" fill="none" xmlns="http://www.w3.org/2000/svg">
<mask id="mask0_4974_1207" style="mask-type:alpha" maskUnits="userSpaceOnUse" x="0" y="0" width="20" height="20">
<rect width="20" height="20" fill="#D9D9D9"/>
</mask>
<g mask="url(#mask0_4974_1207)">
<path d="M3.1459 15.9383C2.75478 15.9383 2.41995 15.799 2.14142 15.5205C1.8629 15.2419 1.72363 14.9071 1.72363 14.516V7.02887C1.72363 6.87034 1.78075 6.73389 1.89499 6.61952C2.00922 6.50514 2.14651 6.44795 2.30684 6.44795C2.46717 6.44795 2.60436 6.50514 2.7184 6.61952C2.83245 6.73389 2.88947 6.87034 2.88947 7.02887V14.516C2.88947 14.5801 2.91618 14.6389 2.96961 14.6923C3.02303 14.7457 3.08179 14.7724 3.1459 14.7724H15.2452C15.4037 14.7724 15.5402 14.8296 15.6545 14.9441C15.7689 15.0585 15.8261 15.195 15.8261 15.3536C15.8261 15.5153 15.7689 15.6531 15.6545 15.7672C15.5402 15.8812 15.4037 15.9383 15.2452 15.9383H3.1459ZM6.02888 13.0721C5.63776 13.0721 5.30293 12.9328 5.0244 12.6543C4.74588 12.3758 4.60661 12.041 4.60661 11.6498V5.41989C4.60661 5.02877 4.74588 4.69394 5.0244 4.41541C5.30293 4.13688 5.63776 3.99762 6.02888 3.99762H16.8542C17.2453 3.99762 17.5801 4.13688 17.8586 4.41541C18.1372 4.69394 18.2764 5.02877 18.2764 5.41989V11.6498C18.2764 12.041 18.1372 12.3758 17.8586 12.6543C17.5801 12.9328 17.2453 13.0721 16.8542 13.0721H6.02888ZM7.22838 11.9063C7.22838 11.4976 7.08582 11.15 6.8007 10.8634C6.51558 10.5768 6.17283 10.4335 5.77245 10.4335V11.6498C5.77245 11.7193 5.79783 11.7794 5.84859 11.8301C5.89934 11.8809 5.95944 11.9063 6.02888 11.9063H7.22838ZM15.6547 11.9063H16.8542C16.9236 11.9063 16.9837 11.8809 17.0345 11.8301C17.0852 11.7794 17.1106 11.7193 17.1106 11.6498V10.4335C16.7056 10.4335 16.3617 10.5771 16.0789 10.8644C15.7961 11.1517 15.6547 11.4989 15.6547 11.9063ZM11.4383 10.492C11.9891 10.492 12.4521 10.3017 12.8273 9.92129C13.2026 9.54084 13.3902 9.07582 13.3902 8.52622C13.3902 7.9824 13.2013 7.5217 12.8234 7.14412C12.4455 6.76655 11.9835 6.57777 11.4376 6.57777C10.8916 6.57777 10.4282 6.76517 10.0473 7.13997C9.66644 7.51479 9.47601 7.97869 9.47601 8.53166C9.47601 9.08106 9.66538 9.54513 10.0441 9.92387C10.4228 10.3026 10.8876 10.492 11.4383 10.492ZM5.77245 6.6362C6.17746 6.6362 6.52137 6.49258 6.80417 6.20533C7.08698 5.91806 7.22838 5.57077 7.22838 5.16345H6.02888C5.95944 5.16345 5.89934 5.18883 5.84859 5.2396C5.79783 5.29035 5.77245 5.35045 5.77245 5.41989V6.6362ZM17.1106 6.6362V5.41989C17.1106 5.35045 17.0852 5.29035 17.0345 5.2396C16.9837 5.18883 16.9236 5.16345 16.8542 5.16345H15.6547C15.6547 5.57211 15.7972 5.91973 16.0823 6.20633C16.3675 6.49291 16.7102 6.6362 17.1106 6.6362Z" fill="white"/>
</g>
</svg>
