<svg width="24" height="24" viewBox="0 0 24 24" fill="none" xmlns="http://www.w3.org/2000/svg">
<path d="M15.8403 4.92499V11.025C15.8403 11.415 15.5303 11.725 15.1403 11.725H9.98027C9.59027 11.725 9.28027 11.415 9.28027 11.025V10.055H4.98027C4.59027 10.055 4.28027 9.74499 4.28027 9.35499V3.25499C4.28027 2.86499 4.59027 2.55499 4.98027 2.55499H10.1403C10.5303 2.55499 10.8403 2.86499 10.8403 3.25499V4.22499H15.1403C15.5203 4.22499 15.8403 4.54499 15.8403 4.92499Z" fill="url(#paint0_linear_4974_1459)"/>
<path d="M11.59 14.1849H2.7C2.31 14.1849 2 13.8749 2 13.4849V6.55492C2 6.16492 2.31 5.85492 2.7 5.85492H11.59C11.98 5.85492 12.29 6.16492 12.29 6.55492V13.4849C12.29 13.8749 11.98 14.1849 11.59 14.1849Z" fill="url(#paint1_linear_4974_1459)"/>
<path d="M21.3 21.445H2.7C2.31 21.445 2 21.135 2 20.745V8.47496C2 8.08496 2.31 7.77496 2.7 7.77496H21.3C21.69 7.77496 22 8.08496 22 8.47496V20.745C22 21.135 21.69 21.445 21.3 21.445Z" fill="url(#paint2_linear_4974_1459)"/>
<defs>
<linearGradient id="paint0_linear_4974_1459" x1="4.27548" y1="7.14244" x2="15.8365" y2="7.14244" gradientUnits="userSpaceOnUse">
<stop stop-color="#FCFF1C"/>
<stop offset="1" stop-color="#FF9D0A"/>
</linearGradient>
<linearGradient id="paint1_linear_4974_1459" x1="2" y1="10.0223" x2="12.293" y2="10.0223" gradientUnits="userSpaceOnUse">
<stop stop-color="#E7CFFF"/>
<stop offset="1" stop-color="#870FFF"/>
</linearGradient>
<linearGradient id="paint2_linear_4974_1459" x1="2" y1="14.6143" x2="22" y2="14.6143" gradientUnits="userSpaceOnUse">
<stop stop-color="#03FFE5"/>
<stop offset="1" stop-color="#14B348"/>
</linearGradient>
</defs>
</svg>
